<svg xmlns="http://www.w3.org/2000/svg" xmlns:xlink="http://www.w3.org/1999/xlink" version="1.1" width="256" height="256" viewBox="0 0 256 256" xml:space="preserve">
<g style="stroke: none; stroke-width: 0; stroke-dasharray: none; stroke-linecap: butt; stroke-linejoin: miter; stroke-miterlimit: 10; fill: none; fill-rule: nonzero; opacity: 1;" transform="translate(1.4065934065934016 1.4065934065934016) scale(2.81 2.81)">
	<path d="M 72.552 11.409 h -9.23 c -0.89 -2.716 -3.445 -4.684 -6.455 -4.684 h -3.118 C 52.719 2.809 49.172 0 45 0 c -4.172 0 -7.718 2.809 -8.748 6.725 h -3.118 c -3.01 0 -5.565 1.968 -6.455 4.684 h -9.23 c -3.642 0 -6.604 2.963 -6.604 6.605 v 65.382 c 0 3.642 2.962 6.604 6.604 6.604 h 55.104 c 3.642 0 6.604 -2.962 6.604 -6.604 V 18.014 C 79.156 14.372 76.194 11.409 72.552 11.409 z M 23.021 30.626 c 1.421 -0.903 3.307 -0.485 4.212 0.936 l 0.932 1.464 l 4.43 -4.869 c 1.134 -1.247 3.063 -1.338 4.31 -0.204 c 1.246 1.134 1.338 3.063 0.204 4.31 l -7.117 7.823 c -0.581 0.639 -1.402 0.998 -2.256 0.998 c -0.087 0 -0.174 -0.003 -0.262 -0.011 c -0.947 -0.081 -1.802 -0.599 -2.313 -1.402 l -3.076 -4.833 C 21.18 33.416 21.599 31.53 23.021 30.626 z M 37.108 70.167 l -7.117 7.824 c -0.581 0.639 -1.402 0.998 -2.256 0.998 c -0.087 0 -0.174 -0.004 -0.262 -0.011 c -0.947 -0.081 -1.802 -0.6 -2.313 -1.402 l -3.076 -4.833 c -0.904 -1.421 -0.485 -3.307 0.936 -4.212 c 1.421 -0.904 3.307 -0.485 4.212 0.937 l 0.932 1.464 l 4.43 -4.869 c 1.134 -1.245 3.063 -1.338 4.31 -0.204 C 38.15 66.991 38.241 68.92 37.108 70.167 z M 37.108 51.215 l -7.117 7.823 c -0.581 0.639 -1.402 0.998 -2.256 0.998 c -0.087 0 -0.174 -0.004 -0.262 -0.011 c -0.947 -0.081 -1.802 -0.6 -2.313 -1.402 l -3.076 -4.833 c -0.904 -1.421 -0.485 -3.307 0.936 -4.212 c 1.421 -0.904 3.307 -0.485 4.212 0.936 l 0.932 1.465 l 4.429 -4.869 c 1.135 -1.247 3.063 -1.338 4.31 -0.204 C 38.15 48.039 38.241 49.969 37.108 51.215 z M 65.342 75.434 H 45.324 c -1.685 0 -3.051 -1.366 -3.051 -3.051 s 1.366 -3.051 3.051 -3.051 h 20.018 c 1.685 0 3.051 1.366 3.051 3.051 S 67.027 75.434 65.342 75.434 z M 65.342 56.482 H 45.324 c -1.685 0 -3.051 -1.366 -3.051 -3.051 s 1.366 -3.051 3.051 -3.051 h 20.018 c 1.685 0 3.051 1.366 3.051 3.051 S 67.027 56.482 65.342 56.482 z M 65.342 37.53 H 45.324 c -1.685 0 -3.051 -1.366 -3.051 -3.051 s 1.366 -3.051 3.051 -3.051 h 20.018 c 1.685 0 3.051 1.366 3.051 3.051 S 67.027 37.53 65.342 37.53 z" style="stroke: none; stroke-width: 1; stroke-dasharray: none; stroke-linecap: butt; stroke-linejoin: miter; stroke-miterlimit: 10; fill: rgb(0,0,0); fill-rule: nonzero; opacity: 1;" transform=" matrix(1 0 0 1 0 0) " stroke-linecap="round"/>
</g>
</svg>