<svg xmlns="http://www.w3.org/2000/svg" xmlns:xlink="http://www.w3.org/1999/xlink" version="1.1" width="256" height="256" viewBox="0 0 256 256" xml:space="preserve">
<g style="stroke: none; stroke-width: 0; stroke-dasharray: none; stroke-linecap: butt; stroke-linejoin: miter; stroke-miterlimit: 10; fill: none; fill-rule: nonzero; opacity: 1;" transform="translate(1.4065934065934016 1.4065934065934016) scale(2.81 2.81)">
	<path d="M 83.63 82.553 H 6.37 c -3.513 0 -6.37 -2.857 -6.37 -6.37 V 65.528 c 0 -1.104 0.896 -2 2 -2 s 2 0.896 2 2 v 10.654 c 0 1.307 1.063 2.37 2.37 2.37 h 77.26 c 1.307 0 2.37 -1.063 2.37 -2.37 V 28.15 c 0 -1.307 -1.063 -2.37 -2.37 -2.37 H 49.075 c -3.144 0 -6.128 -1.194 -8.405 -3.364 l -9.139 -8.71 c -1.529 -1.457 -3.534 -2.259 -5.646 -2.259 H 6.37 c -1.307 0 -2.37 1.063 -2.37 2.37 v 38.309 c 0 1.104 -0.896 2 -2 2 s -2 -0.896 -2 -2 V 13.817 c 0 -3.512 2.857 -6.37 6.37 -6.37 h 19.515 c 3.145 0 6.13 1.195 8.406 3.364 l 9.139 8.71 c 1.529 1.457 3.534 2.259 5.646 2.259 H 83.63 c 3.513 0 6.37 2.857 6.37 6.37 v 48.032 C 90 79.695 87.143 82.553 83.63 82.553 z" style="stroke: none; stroke-width: 1; stroke-dasharray: none; stroke-linecap: butt; stroke-linejoin: miter; stroke-miterlimit: 10; fill: rgb(0,0,0); fill-rule: nonzero; opacity: 1;" transform=" matrix(1 0 0 1 0 0) " stroke-linecap="round"/>
	<path d="M 52.599 48.342 c -0.512 0 -1.023 -0.195 -1.414 -0.586 L 45 41.572 l -6.185 6.184 c -0.781 0.781 -2.048 0.781 -2.828 0 c -0.781 -0.781 -0.781 -2.047 0 -2.828 l 7.599 -7.599 c 0.78 -0.781 2.047 -0.781 2.828 0 l 7.599 7.599 c 0.781 0.781 0.781 2.047 0 2.828 C 53.622 48.146 53.11 48.342 52.599 48.342 z" style="stroke: none; stroke-width: 1; stroke-dasharray: none; stroke-linecap: butt; stroke-linejoin: miter; stroke-miterlimit: 10; fill: rgb(0,0,0); fill-rule: nonzero; opacity: 1;" transform=" matrix(1 0 0 1 0 0) " stroke-linecap="round"/>
	<path d="M 45 58.102 c -1.104 0 -2 -0.896 -2 -2 V 38.743 c 0 -1.104 0.896 -2 2 -2 s 2 0.896 2 2 v 17.358 C 47 57.206 46.104 58.102 45 58.102 z" style="stroke: none; stroke-width: 1; stroke-dasharray: none; stroke-linecap: butt; stroke-linejoin: miter; stroke-miterlimit: 10; fill: rgb(0,0,0); fill-rule: nonzero; opacity: 1;" transform=" matrix(1 0 0 1 0 0) " stroke-linecap="round"/>
	<path d="M 60.591 66.743 H 29.409 c -1.104 0 -2 -0.896 -2 -2 v -8.835 c 0 -1.104 0.896 -2 2 -2 s 2 0.896 2 2 v 6.835 h 27.182 v -6.835 c 0 -1.104 0.896 -2 2 -2 s 2 0.896 2 2 v 8.835 C 62.591 65.848 61.695 66.743 60.591 66.743 z" style="stroke: none; stroke-width: 1; stroke-dasharray: none; stroke-linecap: butt; stroke-linejoin: miter; stroke-miterlimit: 10; fill: rgb(0,0,0); fill-rule: nonzero; opacity: 1;" transform=" matrix(1 0 0 1 0 0) " stroke-linecap="round"/>
</g>
</svg>